<svg id="Layer_1" data-name="Layer 1" xmlns="http://www.w3.org/2000/svg" xmlns:xlink="http://www.w3.org/1999/xlink" viewBox="0 0 234.65 209.52"><defs><style>.cls-1{fill:none;}.cls-2{clip-path:url(#clip-path);}.cls-3{fill:#fff;}.cls-4,.cls-8{opacity:0.2;}.cls-5{fill:#5d5d5d;}.cls-6{fill:#e07187;}.cls-7{fill:#78c8da;}</style><clipPath id="clip-path" transform="translate(-7.85 -0.24)"><rect class="cls-1" x="7.85" y="0.24" width="234.65" height="209.52"/></clipPath></defs><g class="cls-2"><rect class="cls-3" width="234.65" height="209.52"/><rect class="cls-3" x="64.38" y="48.7" width="107.09" height="148.92" rx="19.77"/><g class="cls-4"><rect x="64.38" y="48.7" width="107.09" height="148.92" rx="19.77"/></g><path class="cls-5" d="M159.55,50.62a18.1,18.1,0,0,1,18.1,18.1V178.09a18.1,18.1,0,0,1-18.1,18.1H92a18.1,18.1,0,0,1-18.1-18.1V68.72A18.1,18.1,0,0,1,92,50.62Zm0-3.35H92A21.47,21.47,0,0,0,70.55,68.72V178.09A21.47,21.47,0,0,0,92,199.54h67.55A21.47,21.47,0,0,0,181,178.09V68.72a21.47,21.47,0,0,0-21.45-21.45Z" transform="translate(-7.85 -0.24)"/><path class="cls-3" d="M96.45,190a17.61,17.61,0,0,1-17.39-17.8V74.65a17.61,17.61,0,0,1,17.39-17.8H155.1a17.61,17.61,0,0,1,17.39,17.8v97.51A17.61,17.61,0,0,1,155.1,190Z" transform="translate(-7.85 -0.24)"/><path class="cls-6" d="M99.66,108.71a10.21,10.21,0,0,1-.11-20.41L128.87,88a10.21,10.21,0,1,1,.22,20.42Z" transform="translate(-7.85 -0.24)"/><path class="cls-7" d="M113.82,108.56a1.53,1.53,0,0,1-1.54-1.51l-.18-17.36a1.51,1.51,0,0,1,.43-1.08,1.59,1.59,0,0,1,1.08-.47L128.87,88a10.21,10.21,0,1,1,.22,20.42Z" transform="translate(-7.85 -0.24)"/><path class="cls-8" d="M133.44,89.45a10.09,10.09,0,0,1,.62,3.26A10.22,10.22,0,0,1,124,103l-29.43.31a10.12,10.12,0,0,1-4.7-1.2A10.24,10.24,0,0,0,99.41,109l29.44-.32a10.16,10.16,0,0,0,4.59-19.19Z" transform="translate(-7.85 -0.24)"/><path class="cls-5" d="M140.72,98.06A11.74,11.74,0,0,0,129,86.45h-.13l-29.32.31a11.75,11.75,0,0,0,.13,23.49h.13l14-.15h0l15-.16h.3a11.61,11.61,0,0,0,8.26-3.53,9.4,9.4,0,0,0,1-1.13,11.54,11.54,0,0,0,2.35-6A11.24,11.24,0,0,0,140.72,98.06Zm-41,9.12h-.09a8.68,8.68,0,0,1-.09-17.35l11-.12.19,17.35Zm29.32-.31-15.26.16-.18-17.35,15.26-.17H129a8.68,8.68,0,0,1,.09,17.36Z" transform="translate(-7.85 -0.24)"/><path class="cls-3" d="M99.55,92.29c.65.86-.25,2.64-2,4s-3.73,1.73-4.38.87.25-2.64,2-4S98.9,91.43,99.55,92.29Z" transform="translate(-7.85 -0.24)"/><path class="cls-6" d="M86.6,136.31a10.73,10.73,0,0,1,21.46-.12l.33,30.82a10.73,10.73,0,0,1-21.46.23Z" transform="translate(-7.85 -0.24)"/><path class="cls-7" d="M86.76,151.19a1.61,1.61,0,0,1,1.59-1.61l18.24-.2a1.56,1.56,0,0,1,1.14.46,1.63,1.63,0,0,1,.49,1.13l.17,16a10.73,10.73,0,0,1-21.46.23Z" transform="translate(-7.85 -0.24)"/><path class="cls-8" d="M106.84,171.81a10.43,10.43,0,0,1-3.41.65,10.74,10.74,0,0,1-10.85-10.61l-.33-30.93A10.48,10.48,0,0,1,93.52,126a10.74,10.74,0,0,0-7.17,10.07L86.68,167a10.67,10.67,0,0,0,20.16,4.83Z" transform="translate(-7.85 -0.24)"/><path class="cls-5" d="M97.8,179.46A12.32,12.32,0,0,0,110,167.13h0V167l-.33-30.81a12.34,12.34,0,0,0-24.68.13v.13l.16,14.77h0L85.32,167v.31A12.29,12.29,0,0,0,89,175.94a12.47,12.47,0,0,0,1.19,1,12.25,12.25,0,0,0,6.35,2.47C97,179.45,97.38,179.47,97.8,179.46Zm-9.59-43.05v-.1a9.12,9.12,0,0,1,18.24-.1l.12,11.56-18.23.2Zm.33,30.81-.17-16,18.24-.2.17,16v.1a9.11,9.11,0,0,1-9,9.11,9,9,0,0,1-3.56-.68A9.14,9.14,0,0,1,88.54,167.22Z" transform="translate(-7.85 -0.24)"/><path class="cls-3" d="M103.87,136.2c-.91.68-2.78-.26-4.19-2.12s-1.82-3.91-.91-4.6,2.77.26,4.18,2.12S104.77,135.51,103.87,136.2Z" transform="translate(-7.85 -0.24)"/><path class="cls-6" d="M138.2,177.54A10.73,10.73,0,0,1,123.41,162l22.21-21.36A10.73,10.73,0,0,1,160.5,156.1Z" transform="translate(-7.85 -0.24)"/><path class="cls-7" d="M148.93,167.23a1.62,1.62,0,0,1-2.27-.06L134,154a1.59,1.59,0,0,1-.45-1.15,1.63,1.63,0,0,1,.49-1.13l11.56-11.12A10.73,10.73,0,0,1,160.5,156.1Z" transform="translate(-7.85 -0.24)"/><path class="cls-8" d="M150.18,138.47a10.61,10.61,0,0,1,2.82,2,10.75,10.75,0,0,1-.3,15.17l-22.3,21.44a10.45,10.45,0,0,1-4.45,2.46,10.73,10.73,0,0,0,12.24-1.68l22.3-21.44a10.68,10.68,0,0,0-10.31-18Z" transform="translate(-7.85 -0.24)"/><path class="cls-5" d="M162,139.81a11.8,11.8,0,0,0-1.88-1.6,12.4,12.4,0,0,0-15.47,1.17h0l-.08.08h0l-22.21,21.36a12.34,12.34,0,0,0,17,17.88l.09-.09,10.65-10.24h0l11.34-10.91.22-.21a12.29,12.29,0,0,0,3.79-8.66,13.3,13.3,0,0,0-.08-1.55,12.25,12.25,0,0,0-2.56-6.31A11.72,11.72,0,0,0,162,139.81ZM137.17,176.3l-.07.07a9.12,9.12,0,0,1-12.57-13.22l8.33-8,12.64,13.15Zm22.21-21.36-11.56,11.11-12.64-13.14,11.56-11.12.07-.07a9.12,9.12,0,0,1,12.82.32,9.26,9.26,0,0,1,2,3.06A9.13,9.13,0,0,1,159.38,154.94Z" transform="translate(-7.85 -0.24)"/><path class="cls-3" d="M126.29,165.05c1.12.18,1.71,2.2,1.33,4.49s-1.61,4-2.73,3.82-1.71-2.2-1.33-4.5S125.17,164.86,126.29,165.05Z" transform="translate(-7.85 -0.24)"/><path class="cls-6" d="M129.5,144.21a7.37,7.37,0,0,1-11.06-9.75l13.92-16a7.38,7.38,0,1,1,11.12,9.7Z" transform="translate(-7.85 -0.24)"/><path class="cls-7" d="M136.23,136.5a1.11,1.11,0,0,1-1.56.1l-9.44-8.24a1.06,1.06,0,0,1-.38-.76,1.12,1.12,0,0,1,.27-.8l7.24-8.31a7.38,7.38,0,1,1,11.12,9.7Z" transform="translate(-7.85 -0.24)"/><path class="cls-8" d="M135.35,116.73a7.5,7.5,0,0,1,2.06,1.23,7.4,7.4,0,0,1,.71,10.41l-14,16a7.37,7.37,0,0,1-2.9,1.95,7.38,7.38,0,0,0,8.28-1.89l14-16a7.35,7.35,0,0,0-8.15-11.71Z" transform="translate(-7.85 -0.24)"/><path class="cls-5" d="M143.5,116.94a8.74,8.74,0,0,0-1.39-1,8.53,8.53,0,0,0-10.52,1.73h0l-.05.06h0l-13.92,16a8.49,8.49,0,0,0,.81,12,8.52,8.52,0,0,0,11.91-.75l.06-.07,6.68-7.65h0l7.11-8.15.14-.16a8.42,8.42,0,0,0,2.07-6.15,9.32,9.32,0,0,0-.15-1.06,8.38,8.38,0,0,0-2.13-4.17C143.92,117.33,143.71,117.13,143.5,116.94Zm-14.78,26.48,0,.06a6.27,6.27,0,0,1-9.4-8.3l5.22-6,9.45,8.24Zm13.93-16-7.25,8.31L126,127.53l7.25-8.31,0,0a6.27,6.27,0,0,1,9.41,8.29Z" transform="translate(-7.85 -0.24)"/><path class="cls-3" d="M120.59,136.37c.78.06,1.31,1.41,1.18,3s-.85,2.84-1.63,2.78-1.31-1.4-1.18-3S119.82,136.31,120.59,136.37Z" transform="translate(-7.85 -0.24)"/><path class="cls-8" d="M159.79,58.56a18.14,18.14,0,0,1,1,5.83V161.9a17.61,17.61,0,0,1-17.38,17.8H84.72A16.69,16.69,0,0,1,79.8,179a17.43,17.43,0,0,0,16.4,12h58.66a17.62,17.62,0,0,0,17.38-17.81V75.63A17.77,17.77,0,0,0,159.79,58.56Z" transform="translate(-7.85 -0.24)"/><path class="cls-5" d="M155.1,58.52a15.92,15.92,0,0,1,15.71,16.13v97.51a15.92,15.92,0,0,1-15.71,16.13H96.45a15.92,15.92,0,0,1-15.71-16.13V74.65A15.92,15.92,0,0,1,96.45,58.52Zm0-3.35H96.45A19.3,19.3,0,0,0,77.39,74.65v97.51a19.3,19.3,0,0,0,19.06,19.48H155.1a19.3,19.3,0,0,0,19.06-19.48V74.65A19.3,19.3,0,0,0,155.1,55.17Z" transform="translate(-7.85 -0.24)"/><path class="cls-7" d="M79.33,76.42a19.37,19.37,0,1,1,0-38.73H171a19.37,19.37,0,1,1,0,38.73Z" transform="translate(-7.85 -0.24)"/><path class="cls-8" d="M177.8,39a19.33,19.33,0,0,1-15.58,30.83H70.54a19.07,19.07,0,0,1-6.3-1.08,19.33,19.33,0,0,0,15.58,7.92H171.5A19.36,19.36,0,0,0,177.8,39Z" transform="translate(-7.85 -0.24)"/><path class="cls-5" d="M171,39.36a17.7,17.7,0,1,1,0,35.39H79.33a17.7,17.7,0,0,1,0-35.39ZM171,36H79.33a21,21,0,0,0,0,42.09H171A21,21,0,1,0,171,36Z" transform="translate(-7.85 -0.24)"/><path class="cls-3" d="M79.52,44.57c1.62,2,0,6-3.56,8.9s-7.8,3.71-9.42,1.74,0-6,3.56-8.9S77.9,42.6,79.52,44.57Z" transform="translate(-7.85 -0.24)"/></g></svg>