<svg id="Layer_1" data-name="Layer 1" xmlns="http://www.w3.org/2000/svg" xmlns:xlink="http://www.w3.org/1999/xlink" viewBox="0 0 478.02 84.75"><defs><style>.cls-1{fill:none;}.cls-2{clip-path:url(#clip-path);}.cls-3{fill:#fff;}.cls-4,.cls-8{opacity:0.2;}.cls-5{fill:#5d5d5d;}.cls-6{fill:#e07187;}.cls-7{fill:#78c8da;}.cls-9{opacity:0.3;}.cls-10{fill:#fbf8f8;}.cls-11{fill:#f2d17e;}.cls-12{fill:#eac259;}.cls-13{fill:#f1d48d;}.cls-14{fill:#5e5d5d;}.cls-15{fill:#87c8fa;}.cls-16{fill:#e79e9f;}</style><clipPath id="clip-path" transform="translate(-20.99 -67.21)"><rect class="cls-1" x="84.76" y="55.96" width="110.88" height="101.2"/></clipPath></defs><g class="cls-2"><rect class="cls-3" x="92" y="7.15" width="54.8" height="76.21" rx="10.12"/><g class="cls-4"><rect x="92" y="7.15" width="54.8" height="76.21" rx="10.12"/></g><path class="cls-5" d="M157.68,75.22a9.26,9.26,0,0,1,9.26,9.26v56a9.25,9.25,0,0,1-9.26,9.26H123.11a9.26,9.26,0,0,1-9.26-9.26v-56a9.27,9.27,0,0,1,9.26-9.26Zm0-1.71H123.11a11,11,0,0,0-11,11v56a11,11,0,0,0,11,11h34.57a11,11,0,0,0,11-11v-56a11,11,0,0,0-11-11Z" transform="translate(-20.99 -67.21)"/><path class="cls-3" d="M125.39,146.53a9,9,0,0,1-8.9-9.11V87.52a9,9,0,0,1,8.9-9.11h30a9,9,0,0,1,8.9,9.11v49.9a9,9,0,0,1-8.9,9.11Z" transform="translate(-20.99 -67.21)"/><path class="cls-6" d="M127,105a5.23,5.23,0,0,1,0-10.45l15-.16a5.23,5.23,0,0,1,.11,10.45Z" transform="translate(-20.99 -67.21)"/><path class="cls-7" d="M134.28,104.87a.79.79,0,0,1-.79-.77l-.09-8.88a.74.74,0,0,1,.22-.56.82.82,0,0,1,.55-.24l7.81-.08a5.23,5.23,0,0,1,.11,10.45Z" transform="translate(-20.99 -67.21)"/><path class="cls-8" d="M144.32,95.09a5.44,5.44,0,0,1,.32,1.67,5.23,5.23,0,0,1-5.17,5.28l-15.06.16a5.2,5.2,0,0,1-2.41-.62,5.24,5.24,0,0,0,4.91,3.49l15.06-.16a5.2,5.2,0,0,0,2.35-9.82Z" transform="translate(-20.99 -67.21)"/><path class="cls-5" d="M148.05,99.5a6,6,0,0,0-.14-1.2A6,6,0,0,0,142,93.56H142l-15,.16a6,6,0,0,0-4.23,1.8A6,6,0,0,0,127,105.73h.07l7.19-.07h0l7.66-.09h.15a6,6,0,0,0,4.23-1.8,6.55,6.55,0,0,0,.49-.58,5.9,5.9,0,0,0,1.2-3.09Q148,99.8,148.05,99.5Zm-21,4.67h0a4.44,4.44,0,0,1,0-8.88l5.63-.07.1,8.89Zm15-.17-7.8.09-.1-8.88,7.81-.09h0a4.45,4.45,0,0,1,4.44,4.4,4.55,4.55,0,0,1-.33,1.73A4.45,4.45,0,0,1,142.08,104Z" transform="translate(-20.99 -67.21)"/><path class="cls-3" d="M127,96.54c.33.44-.13,1.36-1,2s-1.91.89-2.24.45.12-1.36,1-2S126.64,96.1,127,96.54Z" transform="translate(-20.99 -67.21)"/><path class="cls-6" d="M120.35,119.07a5.49,5.49,0,0,1,11-.06l.17,15.77a5.49,5.49,0,0,1-11,.12Z" transform="translate(-20.99 -67.21)"/><path class="cls-7" d="M120.43,126.68a.82.82,0,0,1,.82-.82l9.33-.1a.82.82,0,0,1,.58.23.83.83,0,0,1,.25.59l.09,8.2a5.49,5.49,0,0,1-11,.12Z" transform="translate(-20.99 -67.21)"/><path class="cls-8" d="M130.71,137.24a5.6,5.6,0,0,1-1.75.33,5.49,5.49,0,0,1-5.55-5.43l-.17-15.83a5.39,5.39,0,0,1,.65-2.52,5.48,5.48,0,0,0-3.67,5.15l.17,15.83a5.46,5.46,0,0,0,10.32,2.47Z" transform="translate(-20.99 -67.21)"/><path class="cls-5" d="M126.08,141.15a5.86,5.86,0,0,0,1.26-.14,6.34,6.34,0,0,0,5-6.17h0v-.06h0L132.16,119a6.32,6.32,0,0,0-12.63.07v.07l.08,7.56h0l.08,8v.16a6.26,6.26,0,0,0,1.89,4.44,7.31,7.31,0,0,0,.61.52,6.22,6.22,0,0,0,3.25,1.26A4.42,4.42,0,0,0,126.08,141.15Zm-4.91-22v-.05a4.67,4.67,0,0,1,9.34,0l.06,5.92-9.33.1Zm.17,15.77-.08-8.21,9.33-.1.09,8.21v.05a4.68,4.68,0,0,1-4.62,4.67,4.8,4.8,0,0,1-1.82-.35A4.69,4.69,0,0,1,121.34,134.89Z" transform="translate(-20.99 -67.21)"/><path class="cls-3" d="M129.18,119c-.46.35-1.42-.13-2.14-1.08s-.93-2-.46-2.35,1.42.13,2.14,1.08S129.65,118.66,129.18,119Z" transform="translate(-20.99 -67.21)"/><path class="cls-6" d="M146.75,140.17a5.49,5.49,0,0,1-7.56-8l11.36-10.93a5.49,5.49,0,1,1,7.61,7.92Z" transform="translate(-20.99 -67.21)"/><path class="cls-7" d="M152.24,134.89a.82.82,0,0,1-1.16,0l-6.46-6.72a.78.78,0,0,1-.23-.59.79.79,0,0,1,.25-.58l5.91-5.69a5.49,5.49,0,1,1,7.61,7.92Z" transform="translate(-20.99 -67.21)"/><path class="cls-8" d="M152.88,120.18a5.38,5.38,0,0,1,1.45,1,5.5,5.5,0,0,1-.15,7.76l-11.41,11a5.49,5.49,0,0,1-2.29,1.25,5.51,5.51,0,0,0,6.27-.85l11.41-11a5.46,5.46,0,0,0-5.28-9.2Z" transform="translate(-20.99 -67.21)"/><path class="cls-5" d="M158.91,120.86a6.72,6.72,0,0,0-1-.82,6.36,6.36,0,0,0-7.92.6h0l0,0h0l-11.36,10.93a6.31,6.31,0,0,0-.18,8.93,6.34,6.34,0,0,0,8.88.22l.05-.05,5.45-5.24h0l5.8-5.58.12-.11a6.28,6.28,0,0,0,1.93-4.43,5.16,5.16,0,0,0,0-.79,6.18,6.18,0,0,0-1.31-3.23A4.72,4.72,0,0,0,158.91,120.86Zm-12.68,18.67,0,0a4.66,4.66,0,0,1-6.43-6.76l4.26-4.1,6.47,6.72Zm11.36-10.93-5.91,5.69-6.47-6.72,5.91-5.69,0,0a4.66,4.66,0,0,1,6.56.17,4.57,4.57,0,0,1,1,1.56A4.65,4.65,0,0,1,157.59,128.6Z" transform="translate(-20.99 -67.21)"/><path class="cls-3" d="M140.66,133.78c.57.09.88,1.12.68,2.3s-.82,2-1.39,1.95-.88-1.13-.68-2.3S140.09,133.68,140.66,133.78Z" transform="translate(-20.99 -67.21)"/><path class="cls-6" d="M142.31,123.12a3.78,3.78,0,0,1-5.67-5l7.13-8.17a3.77,3.77,0,0,1,5.69,5Z" transform="translate(-20.99 -67.21)"/><path class="cls-7" d="M145.75,119.17a.58.58,0,0,1-.8,0L140.12,115a.53.53,0,0,1-.2-.38.6.6,0,0,1,.14-.42l3.71-4.25a3.77,3.77,0,0,1,5.69,5Z" transform="translate(-20.99 -67.21)"/><path class="cls-8" d="M145.3,109.05a3.91,3.91,0,0,1,1,.63,3.78,3.78,0,0,1,.36,5.33l-7.15,8.2a3.71,3.71,0,0,1-1.49,1,3.78,3.78,0,0,0,4.24-1l7.16-8.2a3.76,3.76,0,0,0-4.17-6Z" transform="translate(-20.99 -67.21)"/><path class="cls-5" d="M149.47,109.16a4.81,4.81,0,0,0-.71-.5,4.37,4.37,0,0,0-5.39.88h0l0,0h0l-7.12,8.17a4.27,4.27,0,0,0-1.06,3.15,4.33,4.33,0,0,0,7.57,2.59l0,0,3.41-3.92h0l3.63-4.17.08-.08a4.33,4.33,0,0,0,1.05-3.15,4.86,4.86,0,0,0-.07-.55,4.35,4.35,0,0,0-1.09-2.13Zm-7.56,13.55,0,0a3.21,3.21,0,0,1-4.81-4.25l2.67-3.06,4.84,4.22Zm7.12-8.17-3.71,4.25-4.83-4.21,3.71-4.26,0,0a3.2,3.2,0,0,1,4.5-.28,3.16,3.16,0,0,1,.78,1A3.2,3.2,0,0,1,149,114.54Z" transform="translate(-20.99 -67.21)"/><path class="cls-3" d="M137.75,119.1c.39,0,.66.72.6,1.54s-.44,1.45-.84,1.42-.67-.72-.6-1.53S137.35,119.07,137.75,119.1Z" transform="translate(-20.99 -67.21)"/><path class="cls-8" d="M157.8,79.28a9.24,9.24,0,0,1,.5,3v49.9a9,9,0,0,1-8.9,9.11h-30a8.73,8.73,0,0,1-2.52-.38,8.92,8.92,0,0,0,8.39,6.13h30a9,9,0,0,0,8.9-9.11V88A9.11,9.11,0,0,0,157.8,79.28Z" transform="translate(-20.99 -67.21)"/><path class="cls-5" d="M155.4,79.26a8.15,8.15,0,0,1,8,8.26v49.9a8.15,8.15,0,0,1-8,8.25h-30a8.15,8.15,0,0,1-8-8.25V87.52a8.15,8.15,0,0,1,8-8.26Zm0-1.71h-30a9.87,9.87,0,0,0-9.75,10v49.9a9.87,9.87,0,0,0,9.75,10h30a9.88,9.88,0,0,0,9.76-10V87.52a9.88,9.88,0,0,0-9.76-10Z" transform="translate(-20.99 -67.21)"/><path class="cls-7" d="M116.63,88.42a9.91,9.91,0,1,1,0-19.82h46.92a9.91,9.91,0,0,1,0,19.82Z" transform="translate(-20.99 -67.21)"/><path class="cls-8" d="M167,69.28a9.89,9.89,0,0,1-8,15.77H112.13a9.81,9.81,0,0,1-3.22-.55,9.88,9.88,0,0,0,8,4H163.8A9.9,9.9,0,0,0,167,69.28Z" transform="translate(-20.99 -67.21)"/><path class="cls-5" d="M163.55,69.46a9.06,9.06,0,0,1,0,18.11H116.63a9.06,9.06,0,0,1,0-18.11Zm0-1.71H116.63a10.77,10.77,0,1,0,0,21.53h46.92a10.77,10.77,0,0,0,0-21.53Z" transform="translate(-20.99 -67.21)"/><path class="cls-3" d="M116.72,72.13c.83,1,0,3.05-1.81,4.55s-4,1.9-4.83.89,0-3,1.82-4.55S115.9,71.11,116.72,72.13Z" transform="translate(-20.99 -67.21)"/><path class="cls-7" d="M286,117.5a.83.83,0,0,1-.75-.48l-15.9-34.13a.81.81,0,0,1,0-.63.8.8,0,0,1,.43-.47l25.29-11.44a19.65,19.65,0,0,1,16.19,35.81l-24.91,11.27A.78.78,0,0,1,286,117.5Z" transform="translate(-20.99 -67.21)"/><path class="cls-8" d="M321.54,95.19a19.45,19.45,0,0,0-.48-15,19.73,19.73,0,0,0-3.82-5.59,19.6,19.6,0,0,1-10.11,25.22l-16.58,7.49c-2.87-16.32-12.4-24.62-16.42-27.46l-4.36,2a.8.8,0,0,0-.43.47.81.81,0,0,0,0,.63L285.26,117a.83.83,0,0,0,.75.48.78.78,0,0,0,.33-.07l24.91-11.27A19.46,19.46,0,0,0,321.54,95.19Z" transform="translate(-20.99 -67.21)"/><path class="cls-6" d="M244.32,117.8a.84.84,0,0,1-.34-.08l-24.91-11.26a19.65,19.65,0,0,1,8.11-37.56,19.46,19.46,0,0,1,8.08,1.75l25.3,11.44a.83.83,0,0,1,.41,1.1l-15.9,34.13A.83.83,0,0,1,244.32,117.8Z" transform="translate(-20.99 -67.21)"/><path class="cls-9" d="M244.32,117.8a.83.83,0,0,0,.75-.48L261,83.19a.83.83,0,0,0-.41-1.1l-3-1.38A38,38,0,0,0,241,105.94l-16.53-7.48A19.67,19.67,0,0,1,214,74.16a18.51,18.51,0,0,0-4.71,6.3,19.68,19.68,0,0,0,9.81,26L244,117.72A.84.84,0,0,0,244.32,117.8Z" transform="translate(-20.99 -67.21)"/><path class="cls-5" d="M227.18,69.72a18.77,18.77,0,0,1,7.75,1.68l25.29,11.44L244.32,117l-24.91-11.26a18.83,18.83,0,0,1,7.77-36Zm0-1.64a20.51,20.51,0,0,0-18.66,12,20.46,20.46,0,0,0,10.21,27.09l24.91,11.26a1.64,1.64,0,0,0,2.17-.8l15.9-34.14a1.58,1.58,0,0,0,.05-1.26,1.61,1.61,0,0,0-.86-.93L235.6,69.9a20.29,20.29,0,0,0-8.42-1.82Z" transform="translate(-20.99 -67.21)"/><path class="cls-3" d="M245.6,117.63a2.34,2.34,0,0,1-.95-.2c-3.58-1.55-1.58-11.28,2.26-20.09,3.25-7.48,8.47-15.53,12.22-15.53a2.37,2.37,0,0,1,.95.19c3.58,1.56,1.58,11.29-2.26,20.09C254.56,109.58,249.35,117.63,245.6,117.63Z" transform="translate(-20.99 -67.21)"/><path class="cls-8" d="M249.23,115.5a2.3,2.3,0,0,1-.95-.19c-3.59-1.56-1.58-11.29,2.25-20.09,2.07-4.77,4.94-9.76,7.72-12.76-3.59,1.45-8.06,8.57-11,15.26-3.83,8.8-5.84,18.53-2.25,20.09a2.3,2.3,0,0,0,.95.19c1.36,0,2.91-1.07,4.5-2.78A3.46,3.46,0,0,1,249.23,115.5Z" transform="translate(-20.99 -67.21)"/><path class="cls-5" d="M259.13,82.63a1.59,1.59,0,0,1,.62.12c2.6,1.13,1.4,9.65-2.68,19-3.78,8.68-8.7,15-11.47,15a1.6,1.6,0,0,1-.62-.13c-2.6-1.13-1.4-9.64,2.68-19,3.77-8.67,8.69-15,11.47-15Zm0-1.65h0c-4.15,0-9.51,8-13,16-3,6.86-6.73,19-1.83,21.18a3.25,3.25,0,0,0,1.28.26c4.14,0,9.5-8,13-16,3-6.86,6.73-19,1.83-21.17a3.09,3.09,0,0,0-1.28-.27Z" transform="translate(-20.99 -67.21)"/><path class="cls-5" d="M303.15,69.43a18.83,18.83,0,0,1,7.77,36L286,116.68l-15.9-34.14L295.4,71.1a18.92,18.92,0,0,1,7.75-1.67Zm0-1.65h0a20.26,20.26,0,0,0-8.42,1.83L269.43,81a1.69,1.69,0,0,0-.87.93,1.65,1.65,0,0,0,.06,1.27l15.89,34.13a1.65,1.65,0,0,0,1.5.95,1.79,1.79,0,0,0,.67-.14l24.91-11.27a20.48,20.48,0,0,0,10.22-27.09,20.51,20.51,0,0,0-18.66-12Z" transform="translate(-20.99 -67.21)"/><path class="cls-3" d="M284.73,117.33c-3.75,0-9-8-12.22-15.53A51.89,51.89,0,0,1,268.6,89c-.57-4,0-6.57,1.65-7.29a2.37,2.37,0,0,1,.95-.19c3.75,0,9,8,12.22,15.53,3.84,8.81,5.84,18.54,2.26,20.1a2.37,2.37,0,0,1-.95.19Z" transform="translate(-20.99 -67.21)"/><path class="cls-5" d="M271.2,82.33c2.77,0,7.69,6.37,11.47,15,4.08,9.37,5.28,17.88,2.68,19a1.44,1.44,0,0,1-.62.13c-2.77,0-7.69-6.37-11.47-15-4.08-9.37-5.28-17.88-2.68-19a1.44,1.44,0,0,1,.62-.13Zm0-1.64a3.09,3.09,0,0,0-1.28.26c-2.05.89-2.77,3.64-2.13,8.15a52.4,52.4,0,0,0,4,13c3.48,8,8.83,16,13,16a3.09,3.09,0,0,0,1.28-.26c4.9-2.13,1.15-14.31-1.83-21.17-3.48-8-8.84-16-13-16Z" transform="translate(-20.99 -67.21)"/><path class="cls-3" d="M250.55,101.91a6.49,6.49,0,0,1-4.27-1.62.82.82,0,0,1-.22-.92c.27-.67.55-1.35.85-2A60.22,60.22,0,0,1,251,89.48a.81.81,0,0,1,.69-.38h.17a6.47,6.47,0,0,1-1.31,12.8Z" transform="translate(-20.99 -67.21)"/><path class="cls-8" d="M253.4,89.73a6.36,6.36,0,0,1,.74,3,6.47,6.47,0,0,1-6.46,6.47,6.32,6.32,0,0,1-1.56-.22c-.06.14-.13.29-.18.43a.82.82,0,0,0,.22.92,6.45,6.45,0,1,0,7.24-10.56Z" transform="translate(-20.99 -67.21)"/><path class="cls-5" d="M251.69,89.92a5.64,5.64,0,0,1-1.14,11.17,5.58,5.58,0,0,1-3.72-1.42c.26-.66.54-1.33.83-2a60.54,60.54,0,0,1,4-7.75Zm0-1.65a1.63,1.63,0,0,0-1.39.78,61.77,61.77,0,0,0-4.15,8c-.29.66-.57,1.34-.85,2a1.65,1.65,0,0,0,.44,1.85A7.28,7.28,0,1,0,252,88.31a1.24,1.24,0,0,0-.33,0Z" transform="translate(-20.99 -67.21)"/><path class="cls-3" d="M284.73,117.33c-3.75,0-9-8-12.22-15.53A51.89,51.89,0,0,1,268.6,89c-.57-4,0-6.57,1.65-7.29a2.37,2.37,0,0,1,.95-.19c1.34,0,2.93,1,4.74,3a.8.8,0,0,1,.16.83.81.81,0,0,1-.66.53,4.82,4.82,0,0,0,.65,9.59,4.78,4.78,0,0,0,4.11-2.31.82.82,0,0,1,.7-.39h0a.8.8,0,0,1,.7.45c.64,1.24,1.24,2.51,1.79,3.78,3.84,8.81,5.84,18.54,2.26,20.1a2.37,2.37,0,0,1-.95.19Z" transform="translate(-20.99 -67.21)"/><g class="cls-4"><path d="M276.44,84.56c-1.81-2-3.4-3-4.74-3a2.37,2.37,0,0,0-.95.19,2.46,2.46,0,0,0-.88.7,13.79,13.79,0,0,1,2.2,2l.05.07h0a8.37,8.37,0,0,1,1,1.31h0a4.36,4.36,0,0,1,.24.41l.24.26a1.06,1.06,0,0,1,.18.27,4.73,4.73,0,0,1,2.13-.87.81.81,0,0,0,.66-.53A.8.8,0,0,0,276.44,84.56Z" transform="translate(-20.99 -67.21)"/><path d="M283.92,97c-.55-1.27-1.15-2.54-1.79-3.78a.8.8,0,0,0-.7-.45h0a.82.82,0,0,0-.7.39,4.81,4.81,0,0,1-2,1.82c.29.63.58,1.27.86,1.9,3.46,8,5.41,16.63,3.13,19.39a4.56,4.56,0,0,0,2.55,1,2.37,2.37,0,0,0,.95-.19C289.76,115.58,287.76,105.85,283.92,97Z" transform="translate(-20.99 -67.21)"/></g><path class="cls-5" d="M271.2,82.33c1.11,0,2.55,1,4.13,2.78a5.64,5.64,0,1,0,5.57,8.52c.61,1.19,1.2,2.44,1.77,3.74,4.08,9.37,5.28,17.88,2.68,19a1.44,1.44,0,0,1-.62.13c-2.77,0-7.69-6.37-11.47-15-4.08-9.37-5.28-17.88-2.68-19a1.44,1.44,0,0,1,.62-.13Zm0-1.64h0a3.09,3.09,0,0,0-1.28.26c-2.05.89-2.77,3.64-2.13,8.15a52.4,52.4,0,0,0,4,13c3.48,8,8.83,16,13,16a3.09,3.09,0,0,0,1.28-.26c2.05-.89,2.77-3.64,2.13-8.15a52.83,52.83,0,0,0-4-13c-.57-1.3-1.18-2.59-1.82-3.84A1.62,1.62,0,0,0,281,92h-.06a1.64,1.64,0,0,0-1.4.78,4,4,0,1,1-3.95-6,1.64,1.64,0,0,0,1.32-1.06,1.67,1.67,0,0,0-.31-1.67c-2-2.24-3.76-3.32-5.36-3.32Z" transform="translate(-20.99 -67.21)"/><circle class="cls-10" cx="273.27" cy="106.58" r="6.61" transform="translate(48.42 250.26) rotate(-67.28)"/><path class="cls-8" d="M275.89,100.32a6.53,6.53,0,0,1,.87,3.26,6.61,6.61,0,0,1-9.61,5.89,6.61,6.61,0,1,0,8.74-9.15Z" transform="translate(-20.99 -67.21)"/><path class="cls-5" d="M273.27,100.79a5.79,5.79,0,1,1-5.79,5.79,5.79,5.79,0,0,1,5.79-5.79Zm0-1.65a7.44,7.44,0,1,0,7.43,7.44,7.45,7.45,0,0,0-7.43-7.44Z" transform="translate(-20.99 -67.21)"/><circle class="cls-10" cx="255.77" cy="112.83" r="6.61" transform="translate(31.9 237.94) rotate(-67.27)"/><path class="cls-8" d="M258.39,106.57a6.53,6.53,0,0,1,.87,3.26,6.61,6.61,0,0,1-9.61,5.89,6.61,6.61,0,1,0,8.74-9.15Z" transform="translate(-20.99 -67.21)"/><path class="cls-5" d="M255.77,107a5.79,5.79,0,1,1-5.79,5.79,5.79,5.79,0,0,1,5.79-5.79Zm0-1.65a7.44,7.44,0,1,0,7.43,7.44,7.45,7.45,0,0,0-7.43-7.44Z" transform="translate(-20.99 -67.21)"/><circle class="cls-10" cx="264.27" cy="124.95" r="6.61" transform="translate(25.94 253.23) rotate(-67.28)"/><path class="cls-8" d="M266.89,118.69a6.6,6.6,0,0,1-8.74,9.15,6.61,6.61,0,1,0,8.74-9.15Z" transform="translate(-20.99 -67.21)"/><path class="cls-5" d="M264.27,119.16a5.79,5.79,0,1,1-5.79,5.79,5.79,5.79,0,0,1,5.79-5.79Zm0-1.64A7.44,7.44,0,1,0,271.7,125a7.45,7.45,0,0,0-7.43-7.43Z" transform="translate(-20.99 -67.21)"/><circle class="cls-10" cx="279.39" cy="126.45" r="6.61" transform="translate(33.85 268.12) rotate(-67.28)"/><path class="cls-8" d="M282,120.19a6.59,6.59,0,0,1-8.73,9.15,6.6,6.6,0,1,0,8.73-9.15Z" transform="translate(-20.99 -67.21)"/><path class="cls-5" d="M279.39,120.66a5.79,5.79,0,1,1-5.79,5.79,5.79,5.79,0,0,1,5.79-5.79Zm0-1.64a7.44,7.44,0,1,0,7.44,7.43,7.44,7.44,0,0,0-7.44-7.43Z" transform="translate(-20.99 -67.21)"/><circle class="cls-10" cx="270.52" cy="143.95" r="6.61" transform="translate(12.25 270.66) rotate(-67.28)"/><path class="cls-8" d="M273.14,137.69a6.6,6.6,0,0,1-8.74,9.15,6.61,6.61,0,1,0,8.74-9.15Z" transform="translate(-20.99 -67.21)"/><path class="cls-5" d="M270.52,138.16a5.79,5.79,0,1,1-5.79,5.79,5.79,5.79,0,0,1,5.79-5.79Zm0-1.64A7.44,7.44,0,1,0,278,144a7.45,7.45,0,0,0-7.43-7.43Z" transform="translate(-20.99 -67.21)"/><circle class="cls-10" cx="252.77" cy="135.33" r="6.61" transform="translate(9.3 248.98) rotate(-67.27)"/><path class="cls-8" d="M255.39,129.07a6.53,6.53,0,0,1,.87,3.26,6.61,6.61,0,0,1-9.61,5.89,6.61,6.61,0,1,0,8.74-9.15Z" transform="translate(-20.99 -67.21)"/><path class="cls-5" d="M252.77,129.54a5.79,5.79,0,1,1-5.79,5.79,5.79,5.79,0,0,1,5.79-5.79Zm0-1.65a7.44,7.44,0,1,0,7.43,7.44,7.45,7.45,0,0,0-7.43-7.44Z" transform="translate(-20.99 -67.21)"/><path class="cls-3" d="M311.11,73.26c-.16,1-3,1.29-6.27.75s-5.85-1.76-5.69-2.71,3-1.29,6.26-.75S311.27,72.31,311.11,73.26Z" transform="translate(-20.99 -67.21)"/><path class="cls-3" d="M230.76,72.09c.13,1-2.45,2.1-5.77,2.55s-6.11,0-6.24-.92,2.45-2.1,5.77-2.55S230.63,71.13,230.76,72.09Z" transform="translate(-20.99 -67.21)"/><path class="cls-11" d="M393.43,145.2a27.66,27.66,0,1,1,27.66-27.65A27.68,27.68,0,0,1,393.43,145.2Z" transform="translate(-20.99 -67.21)"/><g class="cls-4"><path d="M393.43,145.2a27.66,27.66,0,1,1,27.66-27.65A27.68,27.68,0,0,1,393.43,145.2Z" transform="translate(-20.99 -67.21)"/></g><path class="cls-5" d="M393.43,90.68a26.87,26.87,0,1,1-26.86,26.87,26.87,26.87,0,0,1,26.86-26.87Zm0-1.57a28.44,28.44,0,1,0,28.45,28.44,28.47,28.47,0,0,0-28.45-28.44Z" transform="translate(-20.99 -67.21)"/><path class="cls-11" d="M393.43,140.49a22.95,22.95,0,1,1,22.95-22.94A23,23,0,0,1,393.43,140.49Z" transform="translate(-20.99 -67.21)"/><path class="cls-8" d="M399.76,95.38a22.94,22.94,0,0,1-18.82,41.34,22.94,22.94,0,1,0,18.82-41.34Z" transform="translate(-20.99 -67.21)"/><path class="cls-5" d="M393.43,95.33a22.22,22.22,0,1,1-22.22,22.22,22.22,22.22,0,0,1,22.22-22.22Zm0-1.45a23.67,23.67,0,1,0,23.67,23.67,23.69,23.69,0,0,0-23.67-23.67Z" transform="translate(-20.99 -67.21)"/><path class="cls-5" d="M408.49,100.86l-33.29,32.8a24,24,0,0,0,2.28,2.23l33.27-32.79A22.75,22.75,0,0,0,408.49,100.86Z" transform="translate(-20.99 -67.21)"/><rect class="cls-6" x="330.91" y="18.68" width="34.16" height="64.36" rx="16.97"/><path class="cls-9" d="M374.85,86.52a16.89,16.89,0,0,1,3.54,10.34v30.42a17,17,0,0,1-17,17h-.22a16.71,16.71,0,0,1-5.59-1A16.92,16.92,0,0,0,369,149.92h.21a17,17,0,0,0,17-17V102.53A17,17,0,0,0,374.85,86.52Z" transform="translate(-20.99 -67.21)"/><path class="cls-5" d="M369.08,86.68a16.18,16.18,0,0,1,16.19,16.18v30.42a16.18,16.18,0,0,1-16.19,16.18h-.21a16.17,16.17,0,0,1-16.18-16.18V102.86a16.17,16.17,0,0,1,16.18-16.18Zm0-1.58h-.21a17.78,17.78,0,0,0-17.76,17.76v30.42A17.78,17.78,0,0,0,368.87,151h.21a17.79,17.79,0,0,0,17.77-17.76V102.86A17.79,17.79,0,0,0,369.08,85.1Z" transform="translate(-20.99 -67.21)"/><path class="cls-3" d="M352.08,111.74a.79.79,0,0,1-.79-.79V86.5a17.6,17.6,0,0,1,17.58-17.58h.22A17.6,17.6,0,0,1,386.67,86.5V111a.79.79,0,0,1-.79.79Z" transform="translate(-20.99 -67.21)"/><path class="cls-8" d="M369.09,68.75h-.22a17.27,17.27,0,0,0-5.55.92,17.58,17.58,0,0,1,13.18,17v24.45a.79.79,0,0,1-.16.45h9.54a.79.79,0,0,0,.79-.79V86.33A17.6,17.6,0,0,0,369.09,68.75Z" transform="translate(-20.99 -67.21)"/><path class="cls-5" d="M369.09,69.71A16.79,16.79,0,0,1,385.88,86.5V111h-33.8V86.5a16.79,16.79,0,0,1,16.79-16.79Zm0-1.58h-.22A18.39,18.39,0,0,0,350.5,86.5V111a1.58,1.58,0,0,0,1.58,1.58h33.8a1.58,1.58,0,0,0,1.58-1.58V86.5a18.39,18.39,0,0,0-18.37-18.37Z" transform="translate(-20.99 -67.21)"/><polygon class="cls-3" points="346.1 46.85 333.1 46.85 333.1 64.18 336.26 49.51 346.1 46.85"/><polygon class="cls-3" points="379.6 38.68 367.76 49.35 367.76 33.68 370.1 43.35 379.6 38.68"/><path class="cls-8" d="M491.83,68.23h-.21v70.45a6,6,0,0,1-6,5.89H451.52v1a6,6,0,0,0,6,5.89h34.27a6,6,0,0,0,6-5.89V74.12A6,6,0,0,0,491.83,68.23Z" transform="translate(-20.99 -67.21)"/><path class="cls-5" d="M492.2,67.21H457.94a6.74,6.74,0,0,0-6.81,6.66V145.3a6.74,6.74,0,0,0,6.81,6.66H492.2A6.75,6.75,0,0,0,499,145.3V73.87A6.75,6.75,0,0,0,492.2,67.21Zm-34.26,83.22a5.21,5.21,0,0,1-5.28-5.13V73.87a5.2,5.2,0,0,1,5.28-5.12H474.3v81.68Zm39.53-5.13a5.2,5.2,0,0,1-5.27,5.13H475.84V68.75H492.2a5.2,5.2,0,0,1,5.27,5.12Z" transform="translate(-20.99 -67.21)"/><path class="cls-6" d="M487,90.26a7.17,7.17,0,1,1,7.17-7.17A7.18,7.18,0,0,1,487,90.26Z" transform="translate(-20.99 -67.21)"/><path class="cls-6" d="M487,107.92a7.17,7.17,0,1,1,7.17-7.17A7.18,7.18,0,0,1,487,107.92Z" transform="translate(-20.99 -67.21)"/><path class="cls-6" d="M487,125.59a7.17,7.17,0,1,1,7.17-7.17A7.18,7.18,0,0,1,487,125.59Z" transform="translate(-20.99 -67.21)"/><path class="cls-6" d="M487,143.26a7.17,7.17,0,1,1,7.17-7.17A7.18,7.18,0,0,1,487,143.26Z" transform="translate(-20.99 -67.21)"/><path class="cls-7" d="M464,90.26a7.17,7.17,0,1,1,7.17-7.17A7.17,7.17,0,0,1,464,90.26Z" transform="translate(-20.99 -67.21)"/><path class="cls-7" d="M464,107.92a7.17,7.17,0,1,1,7.17-7.17A7.17,7.17,0,0,1,464,107.92Z" transform="translate(-20.99 -67.21)"/><path class="cls-7" d="M464,125.59a7.17,7.17,0,1,1,7.17-7.17A7.17,7.17,0,0,1,464,125.59Z" transform="translate(-20.99 -67.21)"/><path class="cls-7" d="M464,143.26a7.17,7.17,0,1,1,7.17-7.17A7.17,7.17,0,0,1,464,143.26Z" transform="translate(-20.99 -67.21)"/><path class="cls-8" d="M489.35,76.15a7.16,7.16,0,0,1-7.74,11.63,7.16,7.16,0,1,0,7.74-11.63Z" transform="translate(-20.99 -67.21)"/><ellipse class="cls-3" cx="461.39" cy="15.63" rx="0.88" ry="1.75"/><path class="cls-8" d="M489.35,93.9a7.16,7.16,0,0,1-7.74,11.63,7.16,7.16,0,1,0,7.74-11.63Z" transform="translate(-20.99 -67.21)"/><ellipse class="cls-3" cx="461.39" cy="33.38" rx="0.88" ry="1.75"/><path class="cls-8" d="M489.1,111.65a7.16,7.16,0,0,1-7.74,11.63,7.16,7.16,0,1,0,7.74-11.63Z" transform="translate(-20.99 -67.21)"/><ellipse class="cls-3" cx="461.14" cy="51.13" rx="0.88" ry="1.75"/><path class="cls-8" d="M489.1,129.15a7.16,7.16,0,0,1-7.74,11.63,7.16,7.16,0,1,0,7.74-11.63Z" transform="translate(-20.99 -67.21)"/><ellipse class="cls-3" cx="461.14" cy="68.63" rx="0.88" ry="1.75"/><path class="cls-8" d="M466.22,76.4a7.11,7.11,0,0,1,2,4.94A7.18,7.18,0,0,1,461,88.51a7.28,7.28,0,0,1-2.56-.48,7.16,7.16,0,1,0,7.74-11.63Z" transform="translate(-20.99 -67.21)"/><ellipse class="cls-3" cx="438.26" cy="15.88" rx="0.88" ry="1.75"/><path class="cls-8" d="M466.22,94.15a7.11,7.11,0,0,1,2,4.94,7.18,7.18,0,0,1-7.17,7.17,7.28,7.28,0,0,1-2.56-.48,7.16,7.16,0,1,0,7.74-11.63Z" transform="translate(-20.99 -67.21)"/><ellipse class="cls-3" cx="438.26" cy="33.63" rx="0.88" ry="1.75"/><path class="cls-8" d="M466,111.9a7.11,7.11,0,0,1,2,4.94,7.18,7.18,0,0,1-7.17,7.17,7.28,7.28,0,0,1-2.56-.48A7.16,7.16,0,1,0,466,111.9Z" transform="translate(-20.99 -67.21)"/><ellipse class="cls-3" cx="438.01" cy="51.38" rx="0.88" ry="1.75"/><path class="cls-8" d="M466,129.4a7.11,7.11,0,0,1,2,4.94,7.18,7.18,0,0,1-7.17,7.17,7.28,7.28,0,0,1-2.56-.48A7.16,7.16,0,1,0,466,129.4Z" transform="translate(-20.99 -67.21)"/><ellipse class="cls-3" cx="438.01" cy="68.88" rx="0.88" ry="1.75"/><path class="cls-5" d="M487,75.15A7.94,7.94,0,1,0,495,83.09,7.95,7.95,0,0,0,487,75.15Zm-4.66,3.55c-.15.17-.3.34-.44.52C482.08,79,482.22,78.87,482.38,78.7Zm-1.74,4.39a6.41,6.41,0,0,1,1.3-3.87l9,9A6.33,6.33,0,0,1,487,89.49,6.4,6.4,0,0,1,480.64,83.09Zm10.26,5.09a5.27,5.27,0,0,0,.52-.44A5.27,5.27,0,0,1,490.9,88.18Zm.54-.45c.16-.16.32-.32.47-.5C491.76,87.41,491.6,87.57,491.44,87.73Zm.47-.5-9-9c-.17.15-.34.31-.5.48a6.4,6.4,0,0,1,9.52,8.54Z" transform="translate(-20.99 -67.21)"/><path class="cls-5" d="M487,92.82a7.94,7.94,0,1,0,7.94,7.93A7.94,7.94,0,0,0,487,92.82Zm-4.15,3.06c-.17.15-.34.31-.49.47C482.55,96.19,482.72,96,482.89,95.88Zm-.51.49c-.15.17-.3.34-.44.52C482.08,96.71,482.22,96.54,482.38,96.37Zm-1.74,4.38a6.41,6.41,0,0,1,1.3-3.86l9,9a6.4,6.4,0,0,1-10.26-5.1Zm10.26,5.1c.18-.14.35-.28.52-.44C491.25,105.57,491.08,105.71,490.9,105.85Zm.54-.45c.16-.16.32-.33.47-.5C491.76,105.07,491.6,105.24,491.44,105.4Zm.47-.5-9-9a6.4,6.4,0,0,1,9,9Z" transform="translate(-20.99 -67.21)"/><path class="cls-5" d="M487,110.48a7.94,7.94,0,1,0,7.94,7.94A7.95,7.95,0,0,0,487,110.48Zm-4.15,3.07c-.17.15-.34.31-.49.47C482.55,113.86,482.72,113.7,482.89,113.55Zm-.51.49c-.15.16-.3.34-.44.52A5.49,5.49,0,0,1,482.38,114Zm-1.74,4.38a6.39,6.39,0,0,1,1.3-3.86l9,9a6.4,6.4,0,0,1-10.26-5.1Zm10.26,5.1c.18-.14.35-.29.52-.44C491.25,123.23,491.08,123.38,490.9,123.52Zm.54-.46c.16-.15.32-.32.47-.49C491.76,122.74,491.6,122.91,491.44,123.06Zm.47-.49-9-9a6.4,6.4,0,0,1,9,9Z" transform="translate(-20.99 -67.21)"/><path class="cls-5" d="M487,128.15a7.94,7.94,0,1,0,7.94,7.94A7.95,7.95,0,0,0,487,128.15Zm-4.15,3.07a4.34,4.34,0,0,0-.49.47A4.34,4.34,0,0,1,482.89,131.22Zm-.51.49a5.73,5.73,0,0,0-.44.52A4.47,4.47,0,0,1,482.38,131.71Zm-1.74,4.38a6.36,6.36,0,0,1,1.3-3.86l9,9a6.33,6.33,0,0,1-3.86,1.31A6.4,6.4,0,0,1,480.64,136.09Zm10.26,5.09c.18-.13.35-.28.52-.43C491.25,140.9,491.08,141.05,490.9,141.18Zm.54-.45c.16-.16.32-.32.47-.49C491.76,140.41,491.6,140.57,491.44,140.73Zm.47-.5-9-9a6.39,6.39,0,0,1,9,9Z" transform="translate(-20.99 -67.21)"/><path class="cls-5" d="M464,75.15a7.94,7.94,0,1,0,7.94,7.94A7.94,7.94,0,0,0,464,75.15Zm-4.65,3.55c-.16.17-.3.34-.44.52C459,79,459.18,78.87,459.34,78.7Zm-1.75,4.39a6.36,6.36,0,0,1,1.31-3.87l9,9a6.39,6.39,0,0,1-10.27-5.09Zm10.27,5.09c.18-.14.35-.28.52-.44C468.21,87.9,468,88,467.86,88.18Zm.53-.45a4.42,4.42,0,0,0,.47-.5A4.42,4.42,0,0,1,468.39,87.73Zm.48-.5-9-9a5.67,5.67,0,0,0-.5.48,6.4,6.4,0,0,1,9.52,8.54Z" transform="translate(-20.99 -67.21)"/><path class="cls-5" d="M464,92.82a7.94,7.94,0,1,0,7.94,7.93A7.94,7.94,0,0,0,464,92.82Zm-4.65,3.55c-.16.17-.3.34-.44.52C459,96.71,459.18,96.54,459.34,96.37Zm-1.75,4.38a6.35,6.35,0,0,1,1.31-3.86l9,9a6.4,6.4,0,0,1-10.27-5.1Zm10.27,5.1c.18-.14.35-.28.52-.44C468.21,105.57,468,105.71,467.86,105.85Zm.53-.45a5.47,5.47,0,0,0,.47-.5A5.47,5.47,0,0,1,468.39,105.4Zm.48-.5-9-9c-.18.15-.34.31-.5.47a6.4,6.4,0,0,1,9.52,8.55Z" transform="translate(-20.99 -67.21)"/><path class="cls-5" d="M464,110.48a7.94,7.94,0,1,0,7.94,7.94A7.94,7.94,0,0,0,464,110.48ZM459.34,114a5.49,5.49,0,0,0-.44.52A5.49,5.49,0,0,1,459.34,114Zm-1.75,4.38a6.33,6.33,0,0,1,1.31-3.86l9,9a6.4,6.4,0,0,1-10.27-5.1Zm10.27,5.1c.18-.14.35-.29.52-.44C468.21,123.23,468,123.38,467.86,123.52Zm.53-.46a4.34,4.34,0,0,0,.47-.49A4.34,4.34,0,0,1,468.39,123.06Zm.48-.49-9-9c-.18.15-.34.31-.5.47a6.4,6.4,0,0,1,9.52,8.55Z" transform="translate(-20.99 -67.21)"/><path class="cls-5" d="M464,128.15a7.94,7.94,0,1,0,7.94,7.94A7.94,7.94,0,0,0,464,128.15Zm-4.65,3.56a5.37,5.37,0,0,0-.44.51A5.37,5.37,0,0,1,459.34,131.71Zm-1.75,4.38a6.31,6.31,0,0,1,1.31-3.86l9,9a6.39,6.39,0,0,1-10.27-5.09Zm10.27,5.09a5.27,5.27,0,0,0,.52-.44A5.27,5.27,0,0,1,467.86,141.18Zm.53-.45a5.38,5.38,0,0,0,.47-.49A5.38,5.38,0,0,1,468.39,140.73Zm.48-.5-9-9a4.42,4.42,0,0,0-.5.47,6.4,6.4,0,0,1,9.52,8.54Z" transform="translate(-20.99 -67.21)"/><circle class="cls-12" cx="37.69" cy="48.94" r="20.84"/><circle class="cls-13" cx="37.69" cy="48.94" r="16.99"/><path class="cls-12" d="M42.44,129.21a19.6,19.6,0,0,0,1.5,1.68c.54.53,1.1,1,1.67,1.5l29.31-29.3a21.09,21.09,0,0,0-3.18-3.18Z" transform="translate(-20.99 -67.21)"/><path class="cls-8" d="M73.79,101.54a20.82,20.82,0,0,0-20.45-5.3,19.1,19.1,0,1,1-8.27,35.46,20.83,20.83,0,0,0,28.72-30.16Z" transform="translate(-20.99 -67.21)"/><path class="cls-14" d="M58.68,137.49a21.34,21.34,0,1,1,15.09-6.25h0A21.2,21.2,0,0,1,58.68,137.49Zm0-41.67a20.33,20.33,0,1,0,14.38,6A20.28,20.28,0,0,0,58.68,95.82Z" transform="translate(-20.99 -67.21)"/><path class="cls-14" d="M58.68,133.64a17.49,17.49,0,1,1,12.37-5.12h0A17.44,17.44,0,0,1,58.68,133.64Zm0-34a16.49,16.49,0,1,0,11.66,4.83A16.44,16.44,0,0,0,58.68,99.66Z" transform="translate(-20.99 -67.21)"/><path class="cls-14" d="M45.65,133.06l-.35-.28a22,22,0,0,1-3.25-3.25l-.28-.35L71.71,99.24l.35.28c.6.49,1.18,1,1.71,1.54s1,1.11,1.54,1.71l.28.35Zm-2.54-3.81c.38.45.78.88,1.18,1.28s.84.81,1.29,1.18l28.66-28.66c-.38-.45-.77-.88-1.18-1.28s-.84-.8-1.29-1.18Z" transform="translate(-20.99 -67.21)"/><path class="cls-15" d="M38.74,143.92h0a14.87,14.87,0,0,1-14.82-14.83V94.35A14.87,14.87,0,0,1,38.74,79.52h0A14.87,14.87,0,0,1,53.57,94.35v34.74A14.87,14.87,0,0,1,38.74,143.92Z" transform="translate(-20.99 -67.21)"/><path class="cls-8" d="M45.14,81.31a14.78,14.78,0,0,1,4.43,10.54v34.74a14.78,14.78,0,0,1-21.35,13.29,14.8,14.8,0,0,0,25.22-10.54V94.6A14.86,14.86,0,0,0,45.14,81.31Z" transform="translate(-20.99 -67.21)"/><path class="cls-14" d="M38.74,144.42a15.34,15.34,0,0,1-15.32-15.33V94.35a15.33,15.33,0,1,1,30.65,0v34.74A15.35,15.35,0,0,1,38.74,144.42Zm0-64.4A14.34,14.34,0,0,0,24.42,94.35v34.74a14.33,14.33,0,1,0,28.65,0V94.35A14.35,14.35,0,0,0,38.74,80Z" transform="translate(-20.99 -67.21)"/><path class="cls-16" d="M22,112.87a.51.51,0,0,1-.5-.5V90.78A15.54,15.54,0,0,1,37,75.25h3.46A15.54,15.54,0,0,1,56,90.78v21.59a.5.5,0,0,1-.5.5Z" transform="translate(-20.99 -67.21)"/><path class="cls-8" d="M48,77a15.46,15.46,0,0,1,3,9.15v21.59a.5.5,0,0,1-.5.5H21.62v4a.5.5,0,0,0,.5.5h33.5a.5.5,0,0,0,.5-.5V90.65A15.54,15.54,0,0,0,48,77Z" transform="translate(-20.99 -67.21)"/><path class="cls-14" d="M40.47,75.75a15.07,15.07,0,0,1,15,15v21.59H22V90.78a15.07,15.07,0,0,1,15-15Zm0-1H37a16,16,0,0,0-16,16v21.59a1,1,0,0,0,1,1h33.5a1,1,0,0,0,1-1V90.78a16,16,0,0,0-16-16Z" transform="translate(-20.99 -67.21)"/><path class="cls-3" d="M34.72,77.71c.69.87-.85,3.24-3.44,5.31s-5.24,3-5.93,2.19S26.2,82,28.79,79.9,34,76.85,34.72,77.71Z" transform="translate(-20.99 -67.21)"/><path class="cls-3" d="M27.78,132.09h0A1.76,1.76,0,0,1,26,130.34V116.21a1.76,1.76,0,0,1,1.75-1.75h0a1.75,1.75,0,0,1,1.75,1.75v14.13A1.75,1.75,0,0,1,27.78,132.09Z" transform="translate(-20.99 -67.21)"/><path class="cls-3" d="M69.7,106.37l-5.13,5.13a.94.94,0,0,1-1.32,0h0a.94.94,0,0,1,0-1.33l5.12-5.12a.94.94,0,0,1,1.33,0h0A.94.94,0,0,1,69.7,106.37Z" transform="translate(-20.99 -67.21)"/></g></svg>