<svg id="Layer_1" data-name="Layer 1" xmlns="http://www.w3.org/2000/svg" xmlns:xlink="http://www.w3.org/1999/xlink" viewBox="0 0 700 445.02"><defs><style>.cls-1{fill:url(#linear-gradient);}.cls-2{fill:url(#linear-gradient-2);}.cls-3{fill:#c6227c;fill-rule:evenodd;}.cls-4{fill:#444;}</style><linearGradient id="linear-gradient" x1="1150" y1="867.17" x2="1344.64" y2="867.17" gradientUnits="userSpaceOnUse"><stop offset="0" stop-color="#4cc9f0"/><stop offset="1" stop-color="#4361ee"/></linearGradient><linearGradient id="linear-gradient-2" x1="1285.37" y1="840.92" x2="1850" y2="840.92" gradientUnits="userSpaceOnUse"><stop offset="0" stop-color="#4361ee"/><stop offset="1" stop-color="#7209b7"/></linearGradient></defs><path class="cls-1" d="M1180.22,821.61a15.16,15.16,0,1,1-16.73-13.4A15.16,15.16,0,0,1,1180.22,821.61Zm49.49,50.48a12.56,12.56,0,0,0,13.86,11.1l63.39-7-3.12-24.92-63,7A12.55,12.55,0,0,0,1229.71,872.09Zm-24.12-40.66,117.22-13,6.8-26-126.78,14.06a12.56,12.56,0,1,0,2.76,25ZM1341.87,903l-62.71,7a12.56,12.56,0,1,0,2.77,25l62.71-7Zm-140.41-43a15.16,15.16,0,1,0,16.74,13.39A15.15,15.15,0,0,0,1201.46,860Zm38.36,51.72a15.16,15.16,0,1,0,16.74,13.39A15.14,15.14,0,0,0,1239.82,911.7Z" transform="translate(-1150 -585.95)"/><path class="cls-2" d="M1849.29,813.89c-7.09-63.88-65.15-110.35-129-103.27l-154.11,17.09L1591.9,960l84.94-9.42a69.62,69.62,0,0,1,132.9-35.73A116.94,116.94,0,0,0,1849.29,813.89Zm-131-65.18-95.08,10.54-1.55-14,91.91-10.19c51.84-5.75,99.39,27.85,112.63,76.76C1808.56,770.48,1765.19,743.51,1718.32,748.71Zm-329-1.39c-63.88,7.08-110.35,65.14-103.27,129a117,117,0,0,0,60.7,89.85,69.62,69.62,0,0,1,137.51,5.75l84.93-9.42-25.76-232.29Zm10.23,36.73c-46.87,5.2-83.27,41-91.45,85.25,2.2-50.62,41.24-93.82,93.08-99.57l91.9-10.19,1.55,14Z" transform="translate(-1150 -585.95)"/><path class="cls-3" d="M1462.94,960.93a51.07,51.07,0,0,0-10.92-17l-63.66,79.54a51.35,51.35,0,0,0,74.58-62.51Z" transform="translate(-1150 -585.95)"/><path class="cls-3" d="M1396.43,931.77a51.36,51.36,0,0,0-18.24,83.54l63.66-79.53A51.23,51.23,0,0,0,1396.43,931.77Z" transform="translate(-1150 -585.95)"/><path class="cls-3" d="M1793.85,924.24a51.2,51.2,0,0,0-10.91-17l-63.66,79.53a51.34,51.34,0,0,0,74.57-62.5Z" transform="translate(-1150 -585.95)"/><path class="cls-3" d="M1727.35,895.08a51.36,51.36,0,0,0-18.24,83.54l63.65-79.54A51.24,51.24,0,0,0,1727.35,895.08Z" transform="translate(-1150 -585.95)"/><path class="cls-4" d="M1348.23,624.43c-4.76-6.33-16.59-11.58-29.44-10.23-16.56,1.75-23.77,9.51-22.85,18.3,1.09,10.31,13.56,11.9,27.93,12.1,25,.44,48.66,4.44,51.63,32.67,2.78,26.36-19.35,40.14-45.72,42.92-24.17,2.54-43.54-2.94-54.61-23.64L1292.75,685c6.61,12.46,20.9,16.76,35.27,15.25,14-1.48,26.69-7.77,25.34-20.61-1.17-11.16-13.32-14.49-29.21-14.53-24.47-.32-47.46-4.4-50.25-30.93-2.56-24.34,20.39-36.84,42.17-39.3,18.42-1.94,38.07,1.29,49,18.6Z" transform="translate(-1150 -585.95)"/><path class="cls-4" d="M1414.23,673.53c2.44,10.17,12.18,16.66,26.72,15.13,7.6-.8,17.27-4.73,21.49-10.12L1477,690.16c-7.83,10.05-21.73,16-34.41,17.29-28.73,3-47.66-12.92-50.48-39.62-2.66-25.35,12.65-45.42,39.69-48.27,27.89-2.93,47.11,12.47,47.51,47.12Zm43.5-21.84c-2.49-10.67-11.51-15.19-23.34-14-11.16,1.18-19.71,7.55-21.62,18.68Z" transform="translate(-1150 -585.95)"/><path class="cls-4" d="M1560.15,692.85l-4.6-43.6c-1.33-12.67-9.27-21.58-22.46-20.19-12.67,1.33-20.17,12.89-18.84,25.56l4.49,42.59-20.45,2.16-8.79-83.49,18.42-1.94,2.54,11.18c7.58-9.17,15.59-14.29,26.07-15.39,19.6-2.06,36.87,11,39.62,37.18l4.61,43.77Z" transform="translate(-1150 -585.95)"/><path class="cls-4" d="M1659.85,682.35l-4.59-43.6c-1.33-12.67-9.27-21.58-22.46-20.19-12.67,1.33-20.17,12.89-18.84,25.56l4.49,42.59L1598,688.87l-8.79-83.49,18.42-1.94,2.54,11.18c7.58-9.17,15.59-14.29,26.07-15.39,19.6-2.06,36.86,11,39.62,37.18l4.61,43.77Z" transform="translate(-1150 -585.95)"/><path class="cls-4" d="M1755.52,588,1775.3,586l8.77,83.32-19.43,2.05-2.3-12.06c-3.7,10.3-16.22,16.4-25.49,17.55-24.66,2.77-44.51-10.52-47.59-39.76-3-28.73,14.49-45.78,38.84-48.18,11.15-1.17,22.35,3,28,10.73Zm-45.64,46.84c1.67,15.88,13.65,24.19,27.34,22.75,32.45-3.42,27.13-54-5.32-50.53C1718.21,608.54,1708.2,619,1709.88,634.88Z" transform="translate(-1150 -585.95)"/></svg>